<svg
  width="28"
  height="28"
  viewBox="0 0 28 28"
  fill="none"
  xmlns="http://www.w3.org/2000/svg"
>
  <path
    opacity="0.4"
    d="M14 25.6667C20.4433 25.6667 25.6666 20.4433 25.6666 14C25.6666 7.55667 20.4433 2.33333 14 2.33333C7.55666 2.33333 2.33331 7.55667 2.33331 14C2.33331 20.4433 7.55666 25.6667 14 25.6667Z"
    fill="black"
  />
  <path
    d="M15.47 18.9933C15.2484 18.9933 15.0267 18.9117 14.8517 18.7367L10.7334 14.6183C10.395 14.28 10.395 13.72 10.7334 13.3817L14.8517 9.26333C15.19 8.925 15.75 8.925 16.0884 9.26333C16.4267 9.60167 16.4267 10.1617 16.0884 10.5L12.5884 14L16.0884 17.5C16.4267 17.8383 16.4267 18.3983 16.0884 18.7367C15.925 18.9117 15.7034 18.9933 15.47 18.9933Z"
    fill="black"
  />
</svg>