<svg
  width="24"
  height="24"
  viewBox="0 0 24 24"
  fill="none"
  xmlns="http://www.w3.org/2000/svg"
>
  <path
    opacity="0.4"
    d="M12 2C6.47715 2 2 6.47715 2 12C2 17.5228 6.47715 22 12 22C17.5228 22 22 17.5228 22 12C22 6.47715 17.5228 2 12 2Z"
    fill="#000000"
  />
  <path
    d="M12 15.01L8.47 11.48C8.18 11.19 8.18 10.71 8.47 10.42C8.76 10.13 9.24 10.13 9.53 10.42L12 12.89L14.47 10.42C14.76 10.13 15.24 10.13 15.53 10.42C15.82 10.71 15.82 11.19 15.53 11.48L12 15.01Z"
    fill="#000000"
  />
</svg>