<svg
  width="24"
  height="25"
  viewBox="0 0 24 25"
  fill="none"
  xmlns="http://www.w3.org/2000/svg"
>
  <path
    d="M16.75 4.06V2.5C16.75 2.09 16.41 1.75 16 1.75C15.59 1.75 15.25 2.09 15.25 2.5V4H8.75001V2.5C8.75001 2.09 8.41001 1.75 8.00001 1.75C7.59001 1.75 7.25001 2.09 7.25001 2.5V4.06C4.55001 4.31 3.24002 5.92 3.04002 8.31C3.02002 8.6 3.26002 8.84 3.54002 8.84H20.46C20.75 8.84 20.99 8.59 20.96 8.31C20.76 5.92 19.45 4.31 16.75 4.06Z"
    fill="#000000"
  />
  <path
    opacity="0.4"
    d="M20 10.34C20.55 10.34 21 10.79 21 11.34V17.5C21 20.5 19.5 22.5 16 22.5H8C4.5 22.5 3 20.5 3 17.5V11.34C3 10.79 3.45 10.34 4 10.34H20Z"
    fill="#000000"
  />
  <path
    d="M8.5 15.5C8.37 15.5 8.24 15.47 8.12 15.42C8 15.37 7.89001 15.3 7.79001 15.21C7.70001 15.11 7.62999 15 7.57999 14.88C7.52999 14.76 7.5 14.63 7.5 14.5C7.5 14.37 7.52999 14.24 7.57999 14.12C7.62999 14 7.70001 13.89 7.79001 13.79C7.89001 13.7 8 13.63 8.12 13.58C8.36 13.48 8.64 13.48 8.88 13.58C9 13.63 9.10999 13.7 9.20999 13.79C9.29999 13.89 9.37001 14 9.42001 14.12C9.47001 14.24 9.5 14.37 9.5 14.5C9.5 14.63 9.47001 14.76 9.42001 14.88C9.37001 15 9.29999 15.11 9.20999 15.21C9.10999 15.3 9 15.37 8.88 15.42C8.76 15.47 8.63 15.5 8.5 15.5Z"
    fill="#000000"
  />
  <path
    d="M12 15.5C11.87 15.5 11.74 15.47 11.62 15.42C11.5 15.37 11.39 15.3 11.29 15.21C11.11 15.02 11 14.76 11 14.5C11 14.24 11.11 13.98 11.29 13.79C11.39 13.7 11.5 13.63 11.62 13.58C11.86 13.47 12.14 13.47 12.38 13.58C12.5 13.63 12.61 13.7 12.71 13.79C12.89 13.98 13 14.24 13 14.5C13 14.76 12.89 15.02 12.71 15.21C12.61 15.3 12.5 15.37 12.38 15.42C12.26 15.47 12.13 15.5 12 15.5Z"
    fill="#000000"
  />
  <path
    d="M8.5 19C8.37 19 8.24 18.97 8.12 18.92C8 18.87 7.89001 18.8 7.79001 18.71C7.61001 18.52 7.5 18.26 7.5 18C7.5 17.74 7.61001 17.48 7.79001 17.29C7.89001 17.2 8 17.13 8.12 17.08C8.36 16.98 8.64 16.98 8.88 17.08C9 17.13 9.10999 17.2 9.20999 17.29C9.38999 17.48 9.5 17.74 9.5 18C9.5 18.26 9.38999 18.52 9.20999 18.71C9.10999 18.8 9 18.87 8.88 18.92C8.76 18.97 8.63 19 8.5 19Z"
    fill="#000000"
  />
</svg>