<svg
  width="24"
  height="25"
  viewBox="0 0 24 25"
  fill="none"
  xmlns="http://www.w3.org/2000/svg"
>
  <path
    opacity="0.4"
    d="M17 21H7C4 21 2 19.5 2 16V9C2 5.5 4 4 7 4H17C20 4 22 5.5 22 9V16C22 19.5 20 21 17 21Z"
    fill="#000000"
  />
  <path
    d="M12 13.37C11.16 13.37 10.31 13.11 9.66001 12.58L6.53001 10.08C6.21001 9.81997 6.15001 9.34997 6.41001 9.02997C6.67001 8.70997 7.14001 8.64997 7.46001 8.90997L10.59 11.41C11.35 12.02 12.64 12.02 13.4 11.41L16.53 8.90997C16.85 8.64997 17.33 8.69997 17.58 9.02997C17.84 9.34997 17.79 9.82997 17.46 10.08L14.33 12.58C13.69 13.11 12.84 13.37 12 13.37Z"
    fill="#000000"
  />
</svg>