<svg
  width="71"
  height="50"
  viewBox="0 0 71 50"
  fill="none"
  xmlns="http://www.w3.org/2000/svg"
>
  <g clip-path="url(#clip0_52_2492)">
    <path
      d="M1.08214 29.0075C1.08214 27.995 1.06445 27.1474 1.00977 26.389H2.92456L3.01544 27.6902H3.06851C3.50197 27.0034 4.29652 26.1896 5.77785 26.1896C6.93429 26.1896 7.8366 26.841 8.21618 27.8156H8.25317C8.56038 27.3283 8.92066 26.9664 9.33563 26.7147C9.82377 26.3705 10.3851 26.1896 11.1065 26.1896C12.5701 26.1896 14.0498 27.1827 14.0498 30.0023V35.1845H11.8825V30.3255C11.8825 28.8635 11.3767 27.995 10.3111 27.995C9.55276 27.995 8.99223 28.5386 8.75821 29.1707C8.69309 29.4119 8.65665 29.66 8.64964 29.9098V35.1853H6.48233V30.0899C6.48233 28.8643 5.99499 27.9958 4.96481 27.9958C4.13568 27.9958 3.57596 28.6472 3.37491 29.26C3.28565 29.4771 3.24865 29.7312 3.24865 29.9821V35.1853H1.08214V29.0075ZM22.4947 33.0727C22.4947 33.8664 22.5309 34.6425 22.6202 35.1853H20.6153L20.4714 34.2106H20.4167C19.8746 34.8974 18.953 35.3831 17.8175 35.3831C16.0467 35.3831 15.0535 34.1021 15.0535 32.7647C15.0535 30.5411 17.0205 29.4232 20.2735 29.4409V29.297C20.2735 28.7179 20.0379 27.761 18.4842 27.761C17.6164 27.761 16.7141 28.0328 16.1182 28.4107L15.6848 26.9656C16.3354 26.5675 17.4733 26.1887 18.863 26.1887C21.6817 26.1887 22.4955 27.9789 22.4955 29.8913L22.4947 33.0727ZM20.3266 30.8877C18.7544 30.8507 17.2562 31.1941 17.2562 32.5307C17.2562 33.3976 17.8175 33.7957 18.5212 33.7957C19.405 33.7957 20.0564 33.2158 20.255 32.5845C20.3037 32.4267 20.3281 32.2624 20.3274 32.0972L20.3266 30.8877ZM24.0291 29.0075C24.0291 27.995 24.0106 27.1474 23.9584 26.389H25.9069L26.0147 27.7095H26.0694C26.4481 27.0219 27.4059 26.1896 28.8688 26.1896C30.4048 26.1896 31.9931 27.1827 31.9931 29.9661V35.1845H29.7719V30.2186C29.7719 28.9544 29.3014 27.9942 28.0919 27.9942C27.2081 27.9942 26.5921 28.6271 26.3581 29.2962C26.2857 29.494 26.268 29.7658 26.268 30.0167V35.1837H24.0283L24.0291 29.0075ZM41.6258 22.8553V32.7108C41.6258 33.6139 41.6628 34.591 41.6982 35.1853H39.7126L39.6217 33.7957H39.5847C39.062 34.7703 37.9948 35.3839 36.7137 35.3839C34.618 35.3839 32.9573 33.5962 32.9573 30.8885C32.938 27.9435 34.7796 26.1904 36.8947 26.1904C38.1042 26.1904 38.9711 26.6962 39.3684 27.3492H39.4062V22.8562H41.6266L41.6258 22.8553ZM39.4054 30.0553C39.4054 29.876 39.3877 29.6589 39.3507 29.4771C39.1521 28.6118 38.4492 27.9065 37.4367 27.9065C36.0101 27.9065 35.2139 29.1715 35.2139 30.8145C35.2139 32.4205 36.0093 33.5954 37.419 33.5954C38.3205 33.5954 39.1159 32.9802 39.3322 32.0232C39.3869 31.8254 39.4062 31.6074 39.4062 31.3734L39.4054 30.0553ZM43.1972 35.1853V26.389H45.4385V35.1853H43.1972ZM47.0083 29.2254C47.0083 28.0336 46.9914 27.1835 46.9375 26.3898H48.87L48.9408 28.0682H49.0139C49.4474 26.8225 50.476 26.3898 51.4177 26.3898C51.634 26.3898 51.7595 26.3528 51.9396 26.3898V28.3416C51.7265 28.2944 51.5089 28.2702 51.2906 28.2692C50.2226 28.2692 49.5005 28.956 49.3026 29.9476C49.2589 30.1745 49.235 30.4049 49.2311 30.636V35.1861H47.0083V29.2254ZM52.9706 35.1853V26.389H55.2087V35.1853H52.9706Z"
                    fill="#0D2B5B"
                  />
                  <path
                    d="M69.1503 17.0861C68.0413 15.8211 66.8623 16.3937 65.9254 16.8593C65.5314 17.0539 62.6869 18.6663 62.6869 18.6663C61.1284 19.3089 59.9148 18.6076 59.4388 18.0173C59.3932 17.9614 59.3521 17.9019 59.3157 17.8396L59.2047 17.6474C59.0172 17.323 58.8087 17.0111 58.5807 16.7137C58.4423 16.5335 58.2924 16.3624 58.1319 16.2014C57.0656 15.1246 55.3615 14.3711 52.513 15.7398C51.1644 16.5215 46.771 19.0314 46.771 19.0314C45.12 19.711 43.8574 18.8834 43.4473 18.2763C43.4288 18.2535 43.4127 18.229 43.399 18.2031L43.3452 18.1114L43.0669 17.6562C42.9413 17.4569 42.8066 17.2634 42.6632 17.0764C42.5234 16.8973 42.3733 16.7265 42.2137 16.5649C41.1545 15.4946 39.4593 14.7426 36.6357 16.0856C34.9284 17.0603 30.9573 19.3306 30.9573 19.3306L30.9557 19.3322L28.0493 20.9929L29.5532 22.8393C30.1861 23.4424 31.3755 24.4316 33.2155 23.5977C33.2155 23.5977 38.294 20.6567 38.3141 20.6479C42.656 18.265 44.7983 20.5417 45.7457 22.0592C45.7787 22.1067 45.8052 22.1581 45.835 22.204L45.8366 22.2064C45.8486 22.2249 45.8559 22.2418 45.8663 22.2595L45.9733 22.4348C46.4349 23.1344 47.1627 23.5864 48.0304 23.5655C48.5089 23.5558 48.8338 23.3998 49.3067 23.1368L54.2203 20.2868L54.2308 20.2819C58.6273 17.8702 60.8059 20.2956 61.7364 21.8131C61.8087 21.9442 61.8908 22.0697 61.9752 22.1863C62.436 22.8112 63.0713 23.2205 63.8787 23.2004C64.4119 23.1899 65.0094 22.8699 65.0987 22.8112L70.9895 19.411C70.9911 19.4126 70.3895 18.5031 69.1503 17.0861Z"
                    fill="#FDD213"
                  />
                </g>
                <defs>
                  <clipPath id="clip0_52_2492">
                    <rect
                      width="70"
                      height="20.384"
                      fill="white"
                      transform="translate(1 15)"
                    />
                  </clipPath>
                </defs>
              </svg>