<svg
  width="24"
  height="25"
  viewBox="0 0 24 25"
  fill="none"
  xmlns="http://www.w3.org/2000/svg"
>
  <path
    opacity="0.4"
    d="M8.55998 3.83997V18.17C8.21998 18.18 7.87998 18.26 7.62998 18.41L5.27998 19.75C3.63998 20.69 2.28998 19.91 2.28998 18.01V8.27997C2.28998 7.64997 2.73998 6.86997 3.29998 6.54997L7.62998 4.06997C7.87998 3.92997 8.21998 3.84997 8.55998 3.83997Z"
    fill="#000000"
  />
  <path
    d="M15.73 6.83006V21.1601C15.38 21.1701 15.04 21.1101 14.77 20.9801L9.52 18.3501C9.25 18.2201 8.91 18.1601 8.56 18.1701V3.84006C8.91 3.83006 9.25 3.89006 9.52 4.02006L14.77 6.65006C15.04 6.78006 15.38 6.84006 15.73 6.83006Z"
    fill="#000000"
  />
  <path
    opacity="0.4"
    d="M22 6.98994V16.7199C22 17.3499 21.55 18.1299 20.99 18.4499L16.66 20.9299C16.41 21.0699 16.07 21.1499 15.73 21.1599V6.82994C16.07 6.81994 16.41 6.73994 16.66 6.58994L19.01 5.24994C20.65 4.30994 22 5.08994 22 6.98994Z"
    fill="#000000"
  />
</svg>