<svg
  width="24"
  height="25"
  viewBox="0 0 24 25"
  fill="none"
  xmlns="http://www.w3.org/2000/svg"
>
  <path
    d="M19.33 6.18003L13.06 2.80003C12.4 2.44003 11.6 2.44003 10.94 2.80003L4.67 6.18003C4.21 6.43003 3.93 6.91003 3.93 7.46003C3.93 8.00003 4.21 8.49003 4.67 8.74003L10.94 12.12C11.27 12.3 11.64 12.39 12 12.39C12.36 12.39 12.73 12.3 13.06 12.12L19.33 8.74003C19.79 8.49003 20.07 8.01003 20.07 7.46003C20.07 6.91003 19.79 6.43003 19.33 6.18003Z"
    fill="#000000"
  />
  <path
    d="M15 16.5C14.44 16.5 13.99 16.05 13.99 15.5C13.99 14.95 14.44 14.5 14.99 14.5C15.54 14.5 15.99 14.95 15.99 15.5C15.99 16.05 15.55 16.5 15 16.5Z"
    fill="#000000"
  />
  <path
    d="M9.01001 10.5C8.45001 10.5 8 10.05 8 9.5C8 8.95 8.45 8.5 9 8.5C9.55 8.5 10 8.95 10 9.5C10 10.05 9.56001 10.5 9.01001 10.5Z"
    fill="#000000"
  />
  <path
    d="M9 16.25C8.81 16.25 8.62 16.18 8.47 16.03C8.18 15.74 8.18 15.2599 8.47 14.9699L14.47 8.96994C14.76 8.67994 15.24 8.67994 15.53 8.96994C15.82 9.25994 15.82 9.74 15.53 10.03L9.53 16.03C9.38 16.18 9.19 16.25 9 16.25Z"
    fill="#000000"
  />
</svg>