<svg
  width="24"
  height="24"
  viewBox="0 0 24 24"
  fill="none"
  xmlns="http://www.w3.org/2000/svg"
>
  <path
    opacity="0.4"
    d="M21.65 10.03C21.26 9.47001 20.57 9.15001 19.78 9.15001H15.68C15.41 9.15001 15.16 9.04001 14.99 8.84001C14.81 8.64001 14.74 8.36001 14.78 8.07001L15.29 4.79001C15.51 3.81001 14.86 2.71001 13.88 2.38001C12.97 2.04001 11.9 2.50001 11.47 3.15001L7.25 9.42001L7.13 9.62001V18.46L7.28 18.61L10.45 21.06C10.87 21.48 11.82 21.71 12.49 21.71H16.39C17.73 21.71 19.08 20.7 19.38 19.47L21.84 11.98C22.1 11.27 22.03 10.58 21.65 10.03Z"
    fill="black"
  />
  <path
    d="M5.21 6.38H4.18C2.63 6.38 2 6.98 2 8.46V18.52C2 20 2.63 20.6 4.18 20.6H5.21C6.76 20.6 7.39 20 7.39 18.52V8.46C7.39 6.98 6.76 6.38 5.21 6.38Z"
    fill="black"
  />
</svg>